<svg width="148" height="148" viewBox="0 0 148 148" fill="none" xmlns="http://www.w3.org/2000/svg">
<g clip-path="url(#clip0)">
<g filter="url(#filter0_d)">
<path d="M45.8334 136.872C38.3557 136.872 32.3253 130.794 32.3253 123.364V67.3057C32.3253 59.828 38.404 53.7976 45.8334 53.7976H101.892C109.37 53.7976 115.4 59.8762 115.4 67.3057V123.364C115.4 130.842 109.321 136.872 101.892 136.872H45.8334V136.872Z" fill="white"/>
<path d="M101.892 136.872H45.8334C38.3557 136.872 32.3253 130.842 32.3253 123.364V67.3057C32.3253 59.828 38.3557 53.7976 45.8334 53.7976H101.892C109.37 53.7976 115.4 59.828 115.4 67.3057V123.364C115.4 130.842 109.321 136.872 101.892 136.872Z" fill="white"/>
</g>
<path d="M45.4957 76.2428V74.6508H47.8114V66.6424H45.4957V65.0504H46.75C47.9561 65.0504 48.1491 64.7609 48.1491 64.2303V64.0373H49.9341V74.699H52.2015V76.2911H45.4957V76.2428Z" fill="black"/>
<path d="M45.4957 74.6499H47.8114V66.5933H45.4957V65.0495H46.75C47.8596 65.0495 48.1973 64.76 48.1973 64.1811V63.9881H49.9823V74.6499H52.298V76.2419H45.544V74.6499H45.4957Z" fill="black"/>
<path d="M97.4536 80.1497C91.9057 80.1497 87.4191 75.663 87.4191 70.1151C87.4191 64.5671 91.9057 60.0805 97.4536 60.0805C103.002 60.0805 107.488 64.5671 107.488 70.1151C107.488 75.6148 103.002 80.1497 97.4536 80.1497Z" fill="#EC2024"/>
<path d="M97.4536 80.1497C102.996 80.1497 107.488 75.657 107.488 70.1151C107.488 64.5731 102.996 60.0805 97.4536 60.0805C91.9117 60.0805 87.4191 64.5731 87.4191 70.1151C87.4191 75.657 91.9117 80.1497 97.4536 80.1497Z" fill="#EC2024"/>
<path d="M42.0705 95.491C41.6363 95.491 41.2986 95.1533 41.2986 94.7191V84.8775C41.2986 84.4433 41.6363 84.1056 42.0705 84.1056H58.8108C59.245 84.1056 59.5827 84.4433 59.5827 84.8775V94.7673C59.5827 95.2015 59.245 95.5392 58.8108 95.5392H42.0705V95.491Z" fill="#E2E2E2"/>
<path d="M58.811 95.4909H42.0706C41.6846 95.4909 41.3469 95.1532 41.3469 94.7673V84.8775C41.3469 84.4915 41.6846 84.1538 42.0706 84.1538H58.811C59.1969 84.1538 59.5346 84.4915 59.5346 84.8775V94.7673C59.5346 95.1532 59.1969 95.4909 58.811 95.4909Z" fill="#E2E2E2"/>
<path d="M43.759 96.2628C41.974 96.2628 40.5267 94.8155 40.5267 93.0305V86.5177C40.5267 84.7327 41.974 83.2854 43.759 83.2854H57.1224C58.9074 83.2854 60.3547 84.7327 60.3547 86.5177V93.0788C60.3547 94.8638 58.9074 96.3111 57.1224 96.3111H43.759V96.2628ZM43.759 84.9257C42.8906 84.9257 42.167 85.6493 42.167 86.5177V93.0788C42.167 93.9472 42.8906 94.6708 43.759 94.6708H57.1224C57.9907 94.6708 58.7144 93.9472 58.7144 93.0788V86.566C58.7144 85.6976 57.9907 84.9739 57.1224 84.9739H43.759V84.9257Z" fill="#2E81FF"/>
<path d="M57.1224 96.2628H43.759C41.974 96.2628 40.5267 94.8155 40.5267 93.0306V86.5177C40.5267 84.7327 41.974 83.2854 43.759 83.2854H57.1224C58.9074 83.2854 60.3547 84.7327 60.3547 86.5177V93.0788C60.3547 94.8155 58.9074 96.2628 57.1224 96.2628ZM43.759 84.9257C42.8424 84.9257 42.1188 85.6493 42.1188 86.566V93.0788C42.1188 93.9954 42.8424 94.7191 43.759 94.7191H57.1224C58.039 94.7191 58.7626 93.9954 58.7626 93.0788V86.566C58.7626 85.6493 58.039 84.9257 57.1224 84.9257H43.759Z" fill="#2E81FF"/>
<path d="M64.5999 129.406C64.1657 129.406 63.828 129.068 63.828 128.634V84.8774C63.828 84.4432 64.1657 84.1055 64.5999 84.1055H81.3403C81.7745 84.1055 82.1122 84.4432 82.1122 84.8774V128.682C82.1122 129.116 81.7745 129.454 81.3403 129.454H64.5999V129.406Z" fill="#E2E2E2"/>
<path d="M81.3416 129.407H64.6012C64.2153 129.407 63.8776 129.069 63.8776 128.684V84.8787C63.8776 84.4928 64.2153 84.1551 64.6012 84.1551H81.3416C81.7275 84.1551 82.0652 84.4928 82.0652 84.8787V128.684C82.0652 129.069 81.7275 129.407 81.3416 129.407Z" fill="#E2E2E2"/>
<path d="M87.1296 129.406C86.6954 129.406 86.3577 129.068 86.3577 128.634V111.556C86.3577 111.122 86.6954 110.784 87.1296 110.784H103.87C104.304 110.784 104.642 111.122 104.642 111.556V128.634C104.642 129.068 104.304 129.406 103.87 129.406H87.1296Z" fill="#E2E2E2"/>
<path d="M103.87 129.405H87.1292C86.7432 129.405 86.4055 129.067 86.4055 128.682V111.603C86.4055 111.217 86.7432 110.88 87.1292 110.88H103.87C104.255 110.88 104.593 111.217 104.593 111.603V128.682C104.593 129.067 104.304 129.405 103.87 129.405Z" fill="#E2E2E2"/>
<path d="M68.6041 76.2419V75.7113C68.6041 72.5755 70.7268 71.3694 72.6566 70.308C74.0556 69.5361 75.2617 68.8125 75.2617 67.5099C75.2617 66.2074 74.4898 65.4837 73.139 65.4837C71.7399 65.4837 70.9198 66.1591 70.6786 67.5582H68.6041C68.9418 65.146 70.5821 63.747 73.1872 63.747C75.7924 63.747 77.3844 65.1943 77.3844 67.5099C77.3844 69.5844 75.6476 70.5975 74.0074 71.5624C72.6083 72.3825 71.161 73.2026 70.7751 74.6982H77.4809V76.2902H68.6041V76.2419Z" fill="black"/>
<path d="M68.6041 75.7113C68.6041 70.2115 75.2617 70.5975 75.2617 67.5099C75.2617 66.2556 74.4898 65.4837 73.139 65.4837C71.6434 65.4837 70.8716 66.2556 70.6786 67.5582H68.6041C68.9418 65.1943 70.5339 63.747 73.1872 63.747C75.9371 63.747 77.3361 65.3872 77.3361 67.4617C77.3361 71.2729 71.547 71.4176 70.7268 74.6499H77.4326V76.2419H68.6524V75.7113H68.6041Z" fill="black"/>
<path d="M97.55 76.4831C94.8484 76.4831 93.0152 75.0358 92.6775 72.6237H94.7519C94.9932 74.0227 95.958 74.7464 97.5018 74.7464C99.1903 74.7464 100.107 74.0227 100.107 72.6719C100.107 71.3693 99.0938 70.6939 96.9711 70.6939H96.3922V69.1019H96.8746C98.8044 69.1019 99.7692 68.4748 99.7692 67.2687C99.7692 66.1108 98.9491 65.4354 97.55 65.4354C96.1027 65.4354 95.2344 66.1108 94.9932 67.5099H92.9187C93.2564 65.0977 94.9449 63.6987 97.55 63.6987C100.155 63.6987 101.892 65.0977 101.892 67.2687C101.892 68.4748 101.361 69.2949 100.252 69.7773C101.602 70.308 102.278 71.3211 102.278 72.7202C102.23 75.0358 100.396 76.4831 97.55 76.4831Z" fill="white"/>
<path d="M97.55 76.4831C94.8002 76.4831 93.0152 75.0358 92.6775 72.6237H94.7519C94.9449 73.9262 95.8133 74.7464 97.5018 74.7464C99.2386 74.7464 100.107 73.9745 100.107 72.6719C100.107 71.707 99.5763 70.6939 96.9711 70.6939H96.3922V69.1502H96.8746C99.3833 69.1502 99.7692 68.1371 99.7692 67.3169C99.7692 66.1591 98.9973 65.4354 97.5018 65.4354C95.958 65.4354 95.1379 66.2073 94.9449 67.5099H92.9187C93.2564 65.146 94.8967 63.6987 97.55 63.6987C100.348 63.6987 101.844 65.2425 101.844 67.2687C101.844 68.4265 101.361 69.2466 100.203 69.7773C101.651 70.4045 102.181 71.4658 102.181 72.7684C102.23 74.8429 100.589 76.4831 97.55 76.4831Z" fill="white"/>
<path d="M95.8372 29.8377L79.4309 13.5682L73.9331 8L52.0289 29.8377L57.5268 35.4059L70.006 22.9645V56.4602H77.8601V22.9645L90.2521 35.4059L95.8372 29.8377Z" fill="#2E81FF"/>
<path d="M107.548 140.6H40.0901C32.8469 140.6 27 134.858 27 127.811V62.3844C27 55.3372 32.8469 49.595 40.0901 49.595H57.5436V56.5552H40.0901C36.6867 56.5552 33.9814 59.1653 33.9814 62.3844V127.811C33.9814 131.03 36.774 133.64 40.0901 133.64H107.548C110.951 133.64 113.657 131.03 113.657 127.811V62.3844C113.657 59.1653 110.864 56.5552 107.548 56.5552H90.0944V49.595H107.548C114.791 49.595 120.638 55.3372 120.638 62.3844V127.811C120.725 134.858 114.791 140.6 107.548 140.6Z" fill="#2E81FF"/>
</g>
<defs>
<filter id="filter0_d" x="24.3374" y="45.2771" width="112.896" height="112.896" filterUnits="userSpaceOnUse" color-interpolation-filters="sRGB">
<feFlood flood-opacity="0" result="BackgroundImageFix"/>
<feColorMatrix in="SourceAlpha" type="matrix" values="0 0 0 0 0 0 0 0 0 0 0 0 0 0 0 0 0 0 127 0"/>
<feOffset dx="6.92289" dy="6.39036"/>
<feGaussianBlur stdDeviation="7.45542"/>
<feColorMatrix type="matrix" values="0 0 0 0 0 0 0 0 0 0 0 0 0 0 0 0 0 0 0.09 0"/>
<feBlend mode="normal" in2="BackgroundImageFix" result="effect1_dropShadow"/>
<feBlend mode="normal" in="SourceGraphic" in2="effect1_dropShadow" result="shape"/>
</filter>
<clipPath id="clip0">
<rect width="148" height="148" fill="white"/>
</clipPath>
</defs>
</svg>
